<?xml version="1.0" encoding="utf-8"?>
<!-- Generator: Adobe Illustrator 21.1.0, SVG Export Plug-In . SVG Version: 6.00 Build 0)  -->
<!DOCTYPE svg PUBLIC "-//W3C//DTD SVG 1.1//EN" "http://www.w3.org/Graphics/SVG/1.1/DTD/svg11.dtd">
<svg version="1.1" id="Layer_1" xmlns="http://www.w3.org/2000/svg" xmlns:xlink="http://www.w3.org/1999/xlink" x="0px" y="0px"
	 viewBox="0 0 225 27" style="enable-background:new 0 0 225 27;" xml:space="preserve">
<style type="text/css">
	.st0{fill:#E52920;}
	.st1{fill:#334A62;}
</style>
<g>
	<g>
		<g>
			<path class="st0" d="M30.9,10.2l-5.2,0l-1.2,2.5c-0.2,0.4-0.4,1-0.4,1h-0.1c0,0-0.2-0.6-0.4-1l-1.2-2.5l-5.2,0l4.1,6.4l-4.1,6.4
				l5.1,0l1.4-2.4c0.1-0.2,0.3-0.5,0.3-0.5h0.1c0,0,0.2,0.2,0.3,0.5l1.4,2.4l5.1,0l-4.1-6.4L30.9,10.2z"/>
			<path class="st0" d="M13.4,13.5c0.2-0.3,2.1-2.6,2.1-4.9c0-4-3.3-6.2-7.3-6.2C3.2,2.4,1,5.4,1,8.6c0,1.8,0.8,3.1,2,4.1
				c-0.7,0.5-3,2.5-3,5.2c0,3.4,2.7,6.7,7.9,6.6c5.3,0,7.9-3.3,7.9-6.5C15.9,15.8,14.8,14.5,13.4,13.5z M8.1,7c1.4,0,2.2,0.8,2.2,2
				c0,1.3-0.6,2.3-0.7,2.6c-1.9-0.8-3.4-1.5-3.4-2.9C6.1,7.8,6.7,7,8.1,7z M7.9,19.9c-1.4,0-2.6-1.1-2.6-2.5c0-1.2,0.6-2.1,1.1-2.6
				c2.1,1,4,1.7,4,2.9C10.5,19.1,9.5,19.9,7.9,19.9z"/>
			<path class="st0" d="M45.6,13.5c0.2-0.3,2.1-2.6,2.1-4.9c0-4-3.3-6.2-7.3-6.2c-5,0-7.2,3.1-7.2,6.2c0,1.8,0.8,3.1,2,4.1
				c-0.7,0.5-3,2.5-3,5.2c0,3.4,2.7,6.7,7.9,6.6c5.3,0,7.9-3.3,7.9-6.5C48.1,15.8,47,14.4,45.6,13.5z M40.3,7c1.4,0,2.2,0.8,2.2,2
				c0,1.3-0.6,2.3-0.7,2.6c-1.9-0.8-3.4-1.5-3.4-2.9C38.4,7.7,39,7,40.3,7z M40.2,19.9c-1.4,0-2.6-1.1-2.6-2.5
				c0-1.2,0.6-2.1,1.1-2.6c2.1,1,4,1.7,4,2.9C42.8,19.1,41.8,19.9,40.2,19.9z"/>
		</g>
	</g>
	<g>
		<path class="st1" d="M56.4,13.4c0-6.6,4.9-11.1,11.2-11.1c4.3,0,7,2.2,8.6,4.8L73,8.8C72,7,70,5.7,67.6,5.7
			c-4.2,0-7.4,3.2-7.4,7.7c0,4.5,3.1,7.7,7.4,7.7c2.3,0,4.4-1.3,5.4-3.1l3.2,1.6c-1.6,2.6-4.3,4.8-8.6,4.8
			C61.3,24.5,56.4,20,56.4,13.4z"/>
		<path class="st1" d="M77.2,16.3c0-4.4,3-8.1,7.9-8.1c5,0,8,3.7,8,8.1c0,4.5-3,8.1-8,8.1C80.2,24.5,77.2,20.8,77.2,16.3z
			 M89.6,16.3c0-2.7-1.6-5.1-4.5-5.1c-2.9,0-4.5,2.4-4.5,5.1c0,2.8,1.6,5.2,4.5,5.2C88,21.5,89.6,19.1,89.6,16.3z"/>
		<path class="st1" d="M105.8,24.1l0-9.7c0-2.4-1.2-3.2-3.1-3.2c-1.7,0-3.2,1-4,2.1l0,10.8l-3.4,0l0-15.5l3.4,0l0,2.1
			c1-1.2,3-2.5,5.4-2.5c3.3,0,5,1.8,5,5l0,10.9L105.8,24.1z"/>
		<path class="st1" d="M113,20.5l0-8.9l-2.6,0l0-2.9l2.6,0l0-4.2l3.4,0l0,4.2l3.1,0l0,2.9l-3.1,0l0,8.1c0,1.1,0.5,1.8,1.5,1.8
			c0.6,0,1.3-0.3,1.5-0.5l0.8,2.5c-0.6,0.6-1.6,1-3.2,1C114.4,24.5,113,23,113,20.5z"/>
		<path class="st1" d="M131.4,24.1l0-1.7c-1.2,1.3-2.9,2.1-5,2.1c-2.5,0-5.4-1.7-5.4-5.1c0-3.6,2.9-5,5.4-5c2.1,0,3.9,0.7,5,2l0-2.3
			c0-1.8-1.5-2.9-3.6-2.9c-1.7,0-3.2,0.6-4.6,2l-1.4-2.3c1.8-1.7,4-2.5,6.5-2.5c3.4,0,6.4,1.4,6.4,5.6l0,10.3L131.4,24.1z
			 M131.4,20.5l0-2.3c-0.8-1.1-2.2-1.6-3.7-1.6c-1.9,0-3.3,1.1-3.3,2.8c0,1.7,1.4,2.8,3.3,2.8C129.2,22.1,130.7,21.6,131.4,20.5z"/>
		<path class="st1" d="M137,16.3c0-4.7,3.3-8.1,8-8.1c3,0,4.8,1.3,5.9,2.8l-2.2,2.1c-0.9-1.2-2.1-1.8-3.6-1.8
			c-2.8,0-4.7,2.1-4.7,5.1c0,3,1.9,5.2,4.7,5.2c1.5,0,2.7-0.6,3.6-1.8l2.2,2.1c-1.1,1.5-2.9,2.8-5.9,2.8C140.3,24.4,137,21,137,16.3
			z"/>
		<path class="st1" d="M154.2,20.5l0-8.9l-2.6,0l0-2.9l2.6,0l0-4.2l3.4,0l0,4.2l3.1,0l0,2.9l-3.1,0l0,8.1c0,1.1,0.5,1.8,1.5,1.8
			c0.6,0,1.3-0.3,1.5-0.5l0.8,2.5c-0.6,0.6-1.6,1-3.2,1C155.6,24.4,154.2,23,154.2,20.5z"/>
		<path class="st1" d="M179.2,24L168,8.8l0,15.3l-3.8,0l0-21.4l3.8,0l10.9,14.8l0-14.8l3.8,0l0,21.4L179.2,24z"/>
		<g>
			<path class="st1" d="M216.7,24l-3.6-11.3L209.5,24l-3.5,0l-4.8-15.5l3.5,0l3.3,11.3l3.7-11.3l2.9,0l3.7,11.3l3.3-11.3l3.5,0
				l-4.8,15.5L216.7,24z"/>
			<path class="st1" d="M185.1,16.3c0-4.4,3-8.1,7.9-8.1c5,0,8,3.7,8,8.1c0,4.4-3,8.1-8,8.1C188.1,24.4,185.1,20.7,185.1,16.3z
				 M197.5,16.3c0-2.7-1.6-5.1-4.5-5.1c-2.8,0-4.4,2.4-4.4,5.1c0,2.7,1.6,5.1,4.4,5.1C195.9,21.4,197.5,19,197.5,16.3z"/>
		</g>
	</g>
</g>
</svg>
